<svg width="44" height="44" viewBox="0 0 44 44" fill="none" xmlns="http://www.w3.org/2000/svg">
<path d="M42.6978 7.51429C44.4157 5.79635 44.4157 3.0064 42.6978 1.28846C40.9799 -0.429486 38.1899 -0.429486 36.472 1.28846L22 15.7742L7.51429 1.3022C5.79635 -0.415743 3.0064 -0.415743 1.28846 1.3022C-0.429486 3.02015 -0.429486 5.81009 1.28846 7.52803L15.7742 22L1.3022 36.4857C-0.415742 38.2036 -0.415742 40.9936 1.3022 42.7115C3.02015 44.4295 5.81009 44.4295 7.52803 42.7115L22 28.2258L36.4857 42.6978C38.2037 44.4157 40.9936 44.4157 42.7115 42.6978C44.4295 40.9798 44.4295 38.1899 42.7115 36.472L28.2258 22L42.6978 7.51429Z" fill="white"/>
</svg>
