<svg width="24" height="24" viewBox="0 0 24 24" fill="none" xmlns="http://www.w3.org/2000/svg">
<path fill-rule="evenodd" clip-rule="evenodd" d="M5.24996 3H8.33996C8.93843 2.99999 9.51225 3.23842 9.9345 3.66254C10.3567 4.08666 10.5926 4.66153 10.59 5.26V8.34C10.59 9.58264 9.5826 10.59 8.33996 10.59H5.24996C4.00732 10.59 2.99996 9.58264 2.99996 8.34V5.26C2.9973 4.66153 3.23318 4.08666 3.65542 3.66254C4.07767 3.23842 4.65149 2.99999 5.24996 3ZM8.33996 9.08C8.75192 9.07461 9.08458 8.74196 9.08996 8.33V5.26C9.08996 4.84579 8.75417 4.51 8.33996 4.51H5.24996C4.83575 4.51 4.49996 4.84579 4.49996 5.26V8.33C4.50535 8.74196 4.838 9.07461 5.24996 9.08H8.33996Z" fill="#54BD95"/>
<path fill-rule="evenodd" clip-rule="evenodd" d="M15.66 3H18.75C19.3485 2.99999 19.9223 3.23842 20.3445 3.66254C20.7668 4.08666 21.0026 4.66153 21 5.26V8.34C21 9.58264 19.9926 10.59 18.75 10.59H15.66C14.4173 10.59 13.41 9.58264 13.41 8.34V5.25C13.41 4.00736 14.4173 3 15.66 3ZM18.75 9.08C19.1619 9.07461 19.4946 8.74196 19.5 8.33V5.26C19.5 4.84579 19.1642 4.51 18.75 4.51H15.66C15.2458 4.51 14.91 4.84579 14.91 5.26V8.33C14.9154 8.74196 15.248 9.07461 15.66 9.08H18.75Z" fill="#54BD95"/>
<path fill-rule="evenodd" clip-rule="evenodd" d="M5.24996 13.41H8.33996C9.5826 13.41 10.59 14.4174 10.59 15.66V18.75C10.59 19.9926 9.5826 21 8.33996 21H5.24996C4.65149 21 4.07767 20.7616 3.65542 20.3375C3.23318 19.9133 2.9973 19.3385 2.99996 18.74V15.66C2.99996 14.4174 4.00732 13.41 5.24996 13.41ZM8.33996 19.49C8.75417 19.49 9.08996 19.1542 9.08996 18.74V15.66C9.08458 15.248 8.75192 14.9154 8.33996 14.91H5.24996C4.838 14.9154 4.50535 15.248 4.49996 15.66V18.74C4.49996 19.1542 4.83575 19.49 5.24996 19.49H8.33996Z" fill="#54BD95"/>
<path fill-rule="evenodd" clip-rule="evenodd" d="M15.66 13.41H18.75C19.9926 13.41 21 14.4174 21 15.66V18.74C21.0026 19.3385 20.7667 19.9133 20.3445 20.3375C19.9223 20.7616 19.3484 21 18.75 21H15.66C15.0615 21 14.4877 20.7616 14.0654 20.3375C13.6432 19.9133 13.4073 19.3385 13.41 18.74V15.66C13.41 14.4174 14.4173 13.41 15.66 13.41ZM18.75 19.49C19.1642 19.49 19.5 19.1542 19.5 18.74V15.66C19.4946 15.248 19.1619 14.9154 18.75 14.91H15.66C15.248 14.9154 14.9153 15.248 14.91 15.66V18.74C14.91 19.1542 15.2457 19.49 15.66 19.49H18.75Z" fill="#54BD95"/>
</svg>
